<?xml version="1.0" encoding="utf-8"?>
<!-- Generator: Adobe Illustrator 25.2.1, SVG Export Plug-In . SVG Version: 6.00 Build 0)  -->
<svg version="1.1" id="Camada_1" xmlns="http://www.w3.org/2000/svg" xmlns:xlink="http://www.w3.org/1999/xlink" x="0px" y="0px"
	 viewBox="0 0 32 32" style="enable-background:new 0 0 32 32;" xml:space="preserve">
<style type="text/css">
	.st0{fill:url(#SVGID_1_);}
	.st1{fill:url(#SVGID_2_);}
</style>
<g>
	<linearGradient id="SVGID_1_" gradientUnits="userSpaceOnUse" x1="11.5724" y1="7.9959" x2="17.5333" y2="21.7519">
		<stop  offset="0" style="stop-color:#91EBFB"/>
		<stop  offset="1" style="stop-color:#3674DA"/>
	</linearGradient>
	<path class="st0" d="M30.2,6.87c0-0.42-0.03-0.85-0.08-1.27c-0.15-1.24-0.65-2.34-1.44-3.28C27.36,0.76,25.66,0,23.63,0
		C18.49,0,13.35,0,8.21,0C7.94,0,7.66,0.02,7.39,0.05C6.24,0.21,5.22,0.65,4.32,1.37c-1.61,1.3-2.47,2.99-2.48,5.06
		c-0.03,4.06-0.01,8.12-0.01,12.17c-0.01,0-0.02,0-0.03,0c0,4.15,0,8.29,0,12.44c0,0.23,0.06,0.43,0.2,0.61
		c0.37,0.45,0.97,0.46,1.43,0.02c1.89-1.83,3.79-3.66,5.68-5.5c0.1-0.1,0.2-0.13,0.34-0.13c4.33,0,8.66,0.01,12.99,0
		c0.54,0,1.09-0.02,1.61-0.14c2.42-0.52,4.2-1.9,5.34-4.1c0.58-1.11,0.81-2.31,0.81-3.55C30.2,14.45,30.21,10.66,30.2,6.87z
		 M28.27,18.62c0,2.6-2.02,4.99-4.59,5.41c-0.4,0.07-0.81,0.09-1.22,0.09c-4.45,0.01-8.9,0.01-13.35,0c-0.4,0-0.72,0.1-1.02,0.4
		c-1.4,1.38-2.82,2.74-4.23,4.1c-0.04,0.04-0.08,0.07-0.15,0.14c0-0.12,0-0.18,0-0.25c0-7.33,0-14.66,0-21.99
		c0-2.24,1.58-4.14,3.78-4.54c0.25-0.05,0.51-0.08,0.77-0.08c5.17,0,10.35-0.01,15.52,0c2.04,0,3.91,1.51,4.35,3.5
		c0.08,0.36,0.12,0.74,0.12,1.11C28.28,10.54,28.27,14.58,28.27,18.62z"/>
	<linearGradient id="SVGID_2_" gradientUnits="userSpaceOnUse" x1="14.5448" y1="6.7078" x2="20.5057" y2="20.4639">
		<stop  offset="0" style="stop-color:#91EBFB"/>
		<stop  offset="1" style="stop-color:#3674DA"/>
	</linearGradient>
	<path class="st1" d="M25.53,8.02C24.61,5.46,22,4.27,19.49,4.75c-1.57,0.3-2.71,1.2-3.5,2.6c-0.62-1.12-1.5-1.92-2.68-2.37
		c-0.98-0.38-2-0.41-3.02-0.21c-1.38,0.26-2.51,0.92-3.29,2.1c-1.1,1.66-1.16,3.45-0.52,5.28c0.39,1.12,1.13,2.02,1.95,2.85
		c1.17,1.18,2.36,2.35,3.53,3.52c1.08,1.07,2.15,2.15,3.22,3.22c0.3,0.3,0.67,0.46,1.08,0.3c0.23-0.09,0.45-0.26,0.63-0.44
		c2.13-2.11,4.25-4.23,6.37-6.35c0.62-0.62,1.2-1.27,1.65-2.03C25.9,11.58,26.18,9.83,25.53,8.02z"/>
</g>
</svg>
